<mxfile host="app.diagrams.net" modified="2023-05-07T08:04:27.687Z" agent="Mozilla/5.0 (Windows NT 10.0; Win64; x64) AppleWebKit/537.36 (KHTML, like Gecko) Chrome/113.0.0.0 Safari/537.36" etag="h_i0b8Rxv4XpQwycYTbv" version="21.2.3" type="github">
  <diagram id="C5RBs43oDa-KdzZeNtuy" name="Page-1">
    <mxGraphModel dx="1674" dy="3094" grid="1" gridSize="10" guides="1" tooltips="1" connect="1" arrows="1" fold="1" page="1" pageScale="1" pageWidth="827" pageHeight="1169" math="0" shadow="0">
      <root>
        <mxCell id="WIyWlLk6GJQsqaUBKTNV-0" />
        <mxCell id="WIyWlLk6GJQsqaUBKTNV-1" parent="WIyWlLk6GJQsqaUBKTNV-0" />
        <mxCell id="FvZd1J4cDIK0EpSucuUi-3" value="GameManager" style="swimlane;fontStyle=0;childLayout=stackLayout;horizontal=1;startSize=30;horizontalStack=0;resizeParent=1;resizeParentMax=0;resizeLast=0;collapsible=1;marginBottom=0;whiteSpace=wrap;html=1;fontSize=12;" vertex="1" parent="WIyWlLk6GJQsqaUBKTNV-1">
          <mxGeometry x="390" y="-1700" width="250" height="120" as="geometry">
            <mxRectangle x="600" y="-1790" width="90" height="30" as="alternateBounds" />
          </mxGeometry>
        </mxCell>
        <mxCell id="FvZd1J4cDIK0EpSucuUi-4" value="- _soundManager :&amp;nbsp;SoundManager" style="text;strokeColor=none;fillColor=none;align=left;verticalAlign=middle;spacingLeft=4;spacingRight=4;overflow=hidden;points=[[0,0.5],[1,0.5]];portConstraint=eastwest;rotatable=0;whiteSpace=wrap;html=1;" vertex="1" parent="FvZd1J4cDIK0EpSucuUi-3">
          <mxGeometry y="30" width="250" height="30" as="geometry" />
        </mxCell>
        <mxCell id="FvZd1J4cDIK0EpSucuUi-344" value="- _inputManager : InputManager" style="text;strokeColor=none;fillColor=none;align=left;verticalAlign=middle;spacingLeft=4;spacingRight=4;overflow=hidden;points=[[0,0.5],[1,0.5]];portConstraint=eastwest;rotatable=0;whiteSpace=wrap;html=1;" vertex="1" parent="FvZd1J4cDIK0EpSucuUi-3">
          <mxGeometry y="60" width="250" height="30" as="geometry" />
        </mxCell>
        <mxCell id="FvZd1J4cDIK0EpSucuUi-418" value="- _ingameManager : IngameManager" style="text;strokeColor=none;fillColor=none;align=left;verticalAlign=middle;spacingLeft=4;spacingRight=4;overflow=hidden;points=[[0,0.5],[1,0.5]];portConstraint=eastwest;rotatable=0;whiteSpace=wrap;html=1;" vertex="1" parent="FvZd1J4cDIK0EpSucuUi-3">
          <mxGeometry y="90" width="250" height="30" as="geometry" />
        </mxCell>
        <mxCell id="FvZd1J4cDIK0EpSucuUi-61" value="" style="endArrow=diamondThin;endFill=1;endSize=24;html=1;rounded=0;entryX=1;entryY=0.5;entryDx=0;entryDy=0;exitX=0;exitY=0;exitDx=0;exitDy=0;" edge="1" parent="WIyWlLk6GJQsqaUBKTNV-1" source="FvZd1J4cDIK0EpSucuUi-393" target="FvZd1J4cDIK0EpSucuUi-4">
          <mxGeometry width="160" relative="1" as="geometry">
            <mxPoint x="521.3699999999999" y="-1537.84" as="sourcePoint" />
            <mxPoint x="1195" y="-1515" as="targetPoint" />
          </mxGeometry>
        </mxCell>
        <mxCell id="FvZd1J4cDIK0EpSucuUi-86" value="MonoBehaviour" style="swimlane;fontStyle=1;align=center;verticalAlign=top;childLayout=stackLayout;horizontal=1;startSize=26;horizontalStack=0;resizeParent=1;resizeParentMax=0;resizeLast=0;collapsible=1;marginBottom=0;whiteSpace=wrap;html=1;" vertex="1" parent="WIyWlLk6GJQsqaUBKTNV-1">
          <mxGeometry x="1440" y="-1350" width="160" height="34" as="geometry">
            <mxRectangle x="1175" y="-1475" width="130" height="30" as="alternateBounds" />
          </mxGeometry>
        </mxCell>
        <mxCell id="FvZd1J4cDIK0EpSucuUi-87" value="" style="line;strokeWidth=1;fillColor=none;align=left;verticalAlign=middle;spacingTop=-1;spacingLeft=3;spacingRight=3;rotatable=0;labelPosition=right;points=[];portConstraint=eastwest;strokeColor=inherit;" vertex="1" parent="FvZd1J4cDIK0EpSucuUi-86">
          <mxGeometry y="26" width="160" height="8" as="geometry" />
        </mxCell>
        <mxCell id="FvZd1J4cDIK0EpSucuUi-356" value="" style="endArrow=diamondThin;endFill=1;endSize=24;html=1;rounded=0;entryX=1;entryY=0.5;entryDx=0;entryDy=0;exitX=0;exitY=0;exitDx=0;exitDy=0;" edge="1" parent="WIyWlLk6GJQsqaUBKTNV-1" source="FvZd1J4cDIK0EpSucuUi-391" target="FvZd1J4cDIK0EpSucuUi-344">
          <mxGeometry width="160" relative="1" as="geometry">
            <mxPoint x="512" y="-1650" as="sourcePoint" />
            <mxPoint x="674" y="-1855" as="targetPoint" />
          </mxGeometry>
        </mxCell>
        <mxCell id="FvZd1J4cDIK0EpSucuUi-372" value="MonsterController" style="swimlane;fontStyle=1;align=center;verticalAlign=top;childLayout=stackLayout;horizontal=1;startSize=26;horizontalStack=0;resizeParent=1;resizeParentMax=0;resizeLast=0;collapsible=1;marginBottom=0;whiteSpace=wrap;html=1;" vertex="1" parent="WIyWlLk6GJQsqaUBKTNV-1">
          <mxGeometry x="1180" y="-1660" width="180" height="184" as="geometry">
            <mxRectangle x="1175" y="-1800" width="130" height="30" as="alternateBounds" />
          </mxGeometry>
        </mxCell>
        <mxCell id="FvZd1J4cDIK0EpSucuUi-373" value="" style="line;strokeWidth=1;fillColor=none;align=left;verticalAlign=middle;spacingTop=-1;spacingLeft=3;spacingRight=3;rotatable=0;labelPosition=right;points=[];portConstraint=eastwest;strokeColor=inherit;" vertex="1" parent="FvZd1J4cDIK0EpSucuUi-372">
          <mxGeometry y="26" width="180" height="8" as="geometry" />
        </mxCell>
        <mxCell id="FvZd1J4cDIK0EpSucuUi-363" value="- Update() : void" style="text;strokeColor=none;fillColor=none;align=left;verticalAlign=middle;spacingLeft=4;spacingRight=4;overflow=hidden;points=[[0,0.5],[1,0.5]];portConstraint=eastwest;rotatable=0;whiteSpace=wrap;html=1;" vertex="1" parent="FvZd1J4cDIK0EpSucuUi-372">
          <mxGeometry y="34" width="180" height="30" as="geometry" />
        </mxCell>
        <mxCell id="FvZd1J4cDIK0EpSucuUi-382" value="+ Move() : void" style="text;strokeColor=none;fillColor=none;align=left;verticalAlign=middle;spacingLeft=4;spacingRight=4;overflow=hidden;points=[[0,0.5],[1,0.5]];portConstraint=eastwest;rotatable=0;whiteSpace=wrap;html=1;" vertex="1" parent="FvZd1J4cDIK0EpSucuUi-372">
          <mxGeometry y="64" width="180" height="30" as="geometry" />
        </mxCell>
        <mxCell id="FvZd1J4cDIK0EpSucuUi-364" value="+ Patrol() : void" style="text;strokeColor=none;fillColor=none;align=left;verticalAlign=middle;spacingLeft=4;spacingRight=4;overflow=hidden;points=[[0,0.5],[1,0.5]];portConstraint=eastwest;rotatable=0;whiteSpace=wrap;html=1;" vertex="1" parent="FvZd1J4cDIK0EpSucuUi-372">
          <mxGeometry y="94" width="180" height="30" as="geometry" />
        </mxCell>
        <mxCell id="FvZd1J4cDIK0EpSucuUi-365" value="+ FollowPlayer() : void" style="text;strokeColor=none;fillColor=none;align=left;verticalAlign=middle;spacingLeft=4;spacingRight=4;overflow=hidden;points=[[0,0.5],[1,0.5]];portConstraint=eastwest;rotatable=0;whiteSpace=wrap;html=1;" vertex="1" parent="FvZd1J4cDIK0EpSucuUi-372">
          <mxGeometry y="124" width="180" height="30" as="geometry" />
        </mxCell>
        <mxCell id="FvZd1J4cDIK0EpSucuUi-422" value="+ FollowTarget(Vector3) : void" style="text;strokeColor=none;fillColor=none;align=left;verticalAlign=middle;spacingLeft=4;spacingRight=4;overflow=hidden;points=[[0,0.5],[1,0.5]];portConstraint=eastwest;rotatable=0;whiteSpace=wrap;html=1;" vertex="1" parent="FvZd1J4cDIK0EpSucuUi-372">
          <mxGeometry y="154" width="180" height="30" as="geometry" />
        </mxCell>
        <mxCell id="FvZd1J4cDIK0EpSucuUi-374" value="PlayerController" style="swimlane;fontStyle=1;align=center;verticalAlign=top;childLayout=stackLayout;horizontal=1;startSize=26;horizontalStack=0;resizeParent=1;resizeParentMax=0;resizeLast=0;collapsible=1;marginBottom=0;whiteSpace=wrap;html=1;" vertex="1" parent="WIyWlLk6GJQsqaUBKTNV-1">
          <mxGeometry x="1175" y="-1860" width="185" height="184" as="geometry">
            <mxRectangle x="1175" y="-1860" width="130" height="30" as="alternateBounds" />
          </mxGeometry>
        </mxCell>
        <mxCell id="FvZd1J4cDIK0EpSucuUi-375" value="" style="line;strokeWidth=1;fillColor=none;align=left;verticalAlign=middle;spacingTop=-1;spacingLeft=3;spacingRight=3;rotatable=0;labelPosition=right;points=[];portConstraint=eastwest;strokeColor=inherit;" vertex="1" parent="FvZd1J4cDIK0EpSucuUi-374">
          <mxGeometry y="26" width="185" height="8" as="geometry" />
        </mxCell>
        <mxCell id="FvZd1J4cDIK0EpSucuUi-376" value="- Update() : void" style="text;strokeColor=none;fillColor=none;align=left;verticalAlign=middle;spacingLeft=4;spacingRight=4;overflow=hidden;points=[[0,0.5],[1,0.5]];portConstraint=eastwest;rotatable=0;whiteSpace=wrap;html=1;" vertex="1" parent="FvZd1J4cDIK0EpSucuUi-374">
          <mxGeometry y="34" width="185" height="30" as="geometry" />
        </mxCell>
        <mxCell id="FvZd1J4cDIK0EpSucuUi-359" value="- SeeMouse() : void" style="text;strokeColor=none;fillColor=none;align=left;verticalAlign=middle;spacingLeft=4;spacingRight=4;overflow=hidden;points=[[0,0.5],[1,0.5]];portConstraint=eastwest;rotatable=0;whiteSpace=wrap;html=1;" vertex="1" parent="FvZd1J4cDIK0EpSucuUi-374">
          <mxGeometry y="64" width="185" height="30" as="geometry" />
        </mxCell>
        <mxCell id="FvZd1J4cDIK0EpSucuUi-381" value="+ Move() : void" style="text;strokeColor=none;fillColor=none;align=left;verticalAlign=middle;spacingLeft=4;spacingRight=4;overflow=hidden;points=[[0,0.5],[1,0.5]];portConstraint=eastwest;rotatable=0;whiteSpace=wrap;html=1;" vertex="1" parent="FvZd1J4cDIK0EpSucuUi-374">
          <mxGeometry y="94" width="185" height="30" as="geometry" />
        </mxCell>
        <mxCell id="FvZd1J4cDIK0EpSucuUi-379" value="+ OpenBox() : void" style="text;strokeColor=none;fillColor=none;align=left;verticalAlign=middle;spacingLeft=4;spacingRight=4;overflow=hidden;points=[[0,0.5],[1,0.5]];portConstraint=eastwest;rotatable=0;whiteSpace=wrap;html=1;" vertex="1" parent="FvZd1J4cDIK0EpSucuUi-374">
          <mxGeometry y="124" width="185" height="30" as="geometry" />
        </mxCell>
        <mxCell id="FvZd1J4cDIK0EpSucuUi-380" value="+ OpenDoor() : void" style="text;strokeColor=none;fillColor=none;align=left;verticalAlign=middle;spacingLeft=4;spacingRight=4;overflow=hidden;points=[[0,0.5],[1,0.5]];portConstraint=eastwest;rotatable=0;whiteSpace=wrap;html=1;" vertex="1" parent="FvZd1J4cDIK0EpSucuUi-374">
          <mxGeometry y="154" width="185" height="30" as="geometry" />
        </mxCell>
        <mxCell id="FvZd1J4cDIK0EpSucuUi-383" value="Use" style="endArrow=open;endSize=12;dashed=1;html=1;rounded=0;exitX=1;exitY=0.5;exitDx=0;exitDy=0;entryX=0;entryY=0;entryDx=0;entryDy=0;" edge="1" parent="WIyWlLk6GJQsqaUBKTNV-1" source="FvZd1J4cDIK0EpSucuUi-370" target="FvZd1J4cDIK0EpSucuUi-374">
          <mxGeometry x="0.007" width="160" relative="1" as="geometry">
            <mxPoint x="1005" y="-1550" as="sourcePoint" />
            <mxPoint x="1005" y="-1431" as="targetPoint" />
            <mxPoint as="offset" />
          </mxGeometry>
        </mxCell>
        <mxCell id="FvZd1J4cDIK0EpSucuUi-388" value="IngameManager" style="swimlane;fontStyle=1;align=center;verticalAlign=top;childLayout=stackLayout;horizontal=1;startSize=26;horizontalStack=0;resizeParent=1;resizeParentMax=0;resizeLast=0;collapsible=1;marginBottom=0;whiteSpace=wrap;html=1;" vertex="1" parent="WIyWlLk6GJQsqaUBKTNV-1">
          <mxGeometry x="760" y="-1550" width="250" height="178" as="geometry">
            <mxRectangle x="760" y="-1550" width="130" height="30" as="alternateBounds" />
          </mxGeometry>
        </mxCell>
        <mxCell id="FvZd1J4cDIK0EpSucuUi-370" value="+ Player : PlayerController" style="text;strokeColor=none;fillColor=none;align=left;verticalAlign=middle;spacingLeft=4;spacingRight=4;overflow=hidden;points=[[0,0.5],[1,0.5]];portConstraint=eastwest;rotatable=0;whiteSpace=wrap;html=1;" vertex="1" parent="FvZd1J4cDIK0EpSucuUi-388">
          <mxGeometry y="26" width="250" height="24" as="geometry" />
        </mxCell>
        <mxCell id="FvZd1J4cDIK0EpSucuUi-384" value="+ Monsters : List&amp;lt;MonsterController&amp;gt;" style="text;strokeColor=none;fillColor=none;align=left;verticalAlign=middle;spacingLeft=4;spacingRight=4;overflow=hidden;points=[[0,0.5],[1,0.5]];portConstraint=eastwest;rotatable=0;whiteSpace=wrap;html=1;" vertex="1" parent="FvZd1J4cDIK0EpSucuUi-388">
          <mxGeometry y="50" width="250" height="20" as="geometry" />
        </mxCell>
        <mxCell id="FvZd1J4cDIK0EpSucuUi-367" value="- _boxes : Box" style="text;strokeColor=none;fillColor=none;align=left;verticalAlign=middle;spacingLeft=4;spacingRight=4;overflow=hidden;points=[[0,0.5],[1,0.5]];portConstraint=eastwest;rotatable=0;whiteSpace=wrap;html=1;" vertex="1" parent="FvZd1J4cDIK0EpSucuUi-388">
          <mxGeometry y="70" width="250" height="20" as="geometry" />
        </mxCell>
        <mxCell id="FvZd1J4cDIK0EpSucuUi-386" value="- currentKeyCount : int" style="text;strokeColor=none;fillColor=none;align=left;verticalAlign=middle;spacingLeft=4;spacingRight=4;overflow=hidden;points=[[0,0.5],[1,0.5]];portConstraint=eastwest;rotatable=0;whiteSpace=wrap;html=1;" vertex="1" parent="FvZd1J4cDIK0EpSucuUi-388">
          <mxGeometry y="90" width="250" height="20" as="geometry" />
        </mxCell>
        <mxCell id="FvZd1J4cDIK0EpSucuUi-389" value="" style="line;strokeWidth=1;fillColor=none;align=left;verticalAlign=middle;spacingTop=-1;spacingLeft=3;spacingRight=3;rotatable=0;labelPosition=right;points=[];portConstraint=eastwest;strokeColor=inherit;" vertex="1" parent="FvZd1J4cDIK0EpSucuUi-388">
          <mxGeometry y="110" width="250" height="8" as="geometry" />
        </mxCell>
        <mxCell id="FvZd1J4cDIK0EpSucuUi-420" value="+ StartGame() : void" style="text;strokeColor=none;fillColor=none;align=left;verticalAlign=middle;spacingLeft=4;spacingRight=4;overflow=hidden;points=[[0,0.5],[1,0.5]];portConstraint=eastwest;rotatable=0;whiteSpace=wrap;html=1;" vertex="1" parent="FvZd1J4cDIK0EpSucuUi-388">
          <mxGeometry y="118" width="250" height="20" as="geometry" />
        </mxCell>
        <mxCell id="FvZd1J4cDIK0EpSucuUi-421" value="- SelectKeyBox() : void" style="text;strokeColor=none;fillColor=none;align=left;verticalAlign=middle;spacingLeft=4;spacingRight=4;overflow=hidden;points=[[0,0.5],[1,0.5]];portConstraint=eastwest;rotatable=0;whiteSpace=wrap;html=1;" vertex="1" parent="FvZd1J4cDIK0EpSucuUi-388">
          <mxGeometry y="138" width="250" height="20" as="geometry" />
        </mxCell>
        <mxCell id="FvZd1J4cDIK0EpSucuUi-385" value="+ OnBoxOpened() : void" style="text;strokeColor=none;fillColor=none;align=left;verticalAlign=middle;spacingLeft=4;spacingRight=4;overflow=hidden;points=[[0,0.5],[1,0.5]];portConstraint=eastwest;rotatable=0;whiteSpace=wrap;html=1;" vertex="1" parent="FvZd1J4cDIK0EpSucuUi-388">
          <mxGeometry y="158" width="250" height="20" as="geometry" />
        </mxCell>
        <mxCell id="FvZd1J4cDIK0EpSucuUi-390" value="Use" style="endArrow=open;endSize=12;dashed=1;html=1;rounded=0;exitX=1;exitY=0.5;exitDx=0;exitDy=0;entryX=0;entryY=0;entryDx=0;entryDy=0;" edge="1" parent="WIyWlLk6GJQsqaUBKTNV-1" source="FvZd1J4cDIK0EpSucuUi-384" target="FvZd1J4cDIK0EpSucuUi-372">
          <mxGeometry x="0.007" width="160" relative="1" as="geometry">
            <mxPoint x="1050" y="-1762" as="sourcePoint" />
            <mxPoint x="1185" y="-1850" as="targetPoint" />
            <mxPoint as="offset" />
          </mxGeometry>
        </mxCell>
        <mxCell id="FvZd1J4cDIK0EpSucuUi-391" value="InputManager" style="swimlane;fontStyle=1;align=center;verticalAlign=top;childLayout=stackLayout;horizontal=1;startSize=26;horizontalStack=0;resizeParent=1;resizeParentMax=0;resizeLast=0;collapsible=1;marginBottom=0;whiteSpace=wrap;html=1;" vertex="1" parent="WIyWlLk6GJQsqaUBKTNV-1">
          <mxGeometry x="760" y="-1720" width="250" height="94" as="geometry">
            <mxRectangle x="790" y="-1840" width="130" height="30" as="alternateBounds" />
          </mxGeometry>
        </mxCell>
        <mxCell id="FvZd1J4cDIK0EpSucuUi-346" value="+ KeyboardAction : Action&amp;lt;InputType&amp;gt;" style="text;strokeColor=none;fillColor=none;align=left;verticalAlign=middle;spacingLeft=4;spacingRight=4;overflow=hidden;points=[[0,0.5],[1,0.5]];portConstraint=eastwest;rotatable=0;whiteSpace=wrap;html=1;" vertex="1" parent="FvZd1J4cDIK0EpSucuUi-391">
          <mxGeometry y="26" width="250" height="30" as="geometry" />
        </mxCell>
        <mxCell id="FvZd1J4cDIK0EpSucuUi-392" value="" style="line;strokeWidth=1;fillColor=none;align=left;verticalAlign=middle;spacingTop=-1;spacingLeft=3;spacingRight=3;rotatable=0;labelPosition=right;points=[];portConstraint=eastwest;strokeColor=inherit;" vertex="1" parent="FvZd1J4cDIK0EpSucuUi-391">
          <mxGeometry y="56" width="250" height="8" as="geometry" />
        </mxCell>
        <mxCell id="FvZd1J4cDIK0EpSucuUi-348" value="+ OnUpdate() : void" style="text;strokeColor=none;fillColor=none;align=left;verticalAlign=middle;spacingLeft=4;spacingRight=4;overflow=hidden;points=[[0,0.5],[1,0.5]];portConstraint=eastwest;rotatable=0;whiteSpace=wrap;html=1;" vertex="1" parent="FvZd1J4cDIK0EpSucuUi-391">
          <mxGeometry y="64" width="250" height="30" as="geometry" />
        </mxCell>
        <mxCell id="FvZd1J4cDIK0EpSucuUi-393" value="SoundManager" style="swimlane;fontStyle=1;align=center;verticalAlign=top;childLayout=stackLayout;horizontal=1;startSize=26;horizontalStack=0;resizeParent=1;resizeParentMax=0;resizeLast=0;collapsible=1;marginBottom=0;whiteSpace=wrap;html=1;" vertex="1" parent="WIyWlLk6GJQsqaUBKTNV-1">
          <mxGeometry x="760" y="-1950" width="320" height="210" as="geometry">
            <mxRectangle x="750" y="-1940" width="130" height="30" as="alternateBounds" />
          </mxGeometry>
        </mxCell>
        <mxCell id="FvZd1J4cDIK0EpSucuUi-12" value="- AudioSource[] _audioSources&amp;nbsp;" style="text;strokeColor=none;fillColor=none;align=left;verticalAlign=middle;spacingLeft=4;spacingRight=4;overflow=hidden;points=[[0,0.5],[1,0.5]];portConstraint=eastwest;rotatable=0;whiteSpace=wrap;html=1;" vertex="1" parent="FvZd1J4cDIK0EpSucuUi-393">
          <mxGeometry y="26" width="320" height="30" as="geometry" />
        </mxCell>
        <mxCell id="FvZd1J4cDIK0EpSucuUi-13" value="- Dictionary&amp;lt;string, AudioClip&amp;gt; _audioClips&amp;nbsp;" style="text;strokeColor=none;fillColor=none;align=left;verticalAlign=middle;spacingLeft=4;spacingRight=4;overflow=hidden;points=[[0,0.5],[1,0.5]];portConstraint=eastwest;rotatable=0;whiteSpace=wrap;html=1;" vertex="1" parent="FvZd1J4cDIK0EpSucuUi-393">
          <mxGeometry y="56" width="320" height="30" as="geometry" />
        </mxCell>
        <mxCell id="FvZd1J4cDIK0EpSucuUi-394" value="" style="line;strokeWidth=1;fillColor=none;align=left;verticalAlign=middle;spacingTop=-1;spacingLeft=3;spacingRight=3;rotatable=0;labelPosition=right;points=[];portConstraint=eastwest;strokeColor=inherit;" vertex="1" parent="FvZd1J4cDIK0EpSucuUi-393">
          <mxGeometry y="86" width="320" height="8" as="geometry" />
        </mxCell>
        <mxCell id="FvZd1J4cDIK0EpSucuUi-14" value="+ Init() : void" style="text;strokeColor=none;fillColor=none;align=left;verticalAlign=middle;spacingLeft=4;spacingRight=4;overflow=hidden;points=[[0,0.5],[1,0.5]];portConstraint=eastwest;rotatable=0;whiteSpace=wrap;html=1;" vertex="1" parent="FvZd1J4cDIK0EpSucuUi-393">
          <mxGeometry y="94" width="320" height="26" as="geometry" />
        </mxCell>
        <mxCell id="FvZd1J4cDIK0EpSucuUi-16" value="+ Play(string, Define.Sound , float) :void&amp;nbsp;" style="text;strokeColor=none;fillColor=none;align=left;verticalAlign=middle;spacingLeft=4;spacingRight=4;overflow=hidden;points=[[0,0.5],[1,0.5]];portConstraint=eastwest;rotatable=0;whiteSpace=wrap;html=1;" vertex="1" parent="FvZd1J4cDIK0EpSucuUi-393">
          <mxGeometry y="120" width="320" height="30" as="geometry" />
        </mxCell>
        <mxCell id="FvZd1J4cDIK0EpSucuUi-17" value="+ Play(AudioClip, Define.Sound type, float) : void&amp;nbsp;" style="text;strokeColor=none;fillColor=none;align=left;verticalAlign=middle;spacingLeft=4;spacingRight=4;overflow=hidden;points=[[0,0.5],[1,0.5]];portConstraint=eastwest;rotatable=0;whiteSpace=wrap;html=1;" vertex="1" parent="FvZd1J4cDIK0EpSucuUi-393">
          <mxGeometry y="150" width="320" height="30" as="geometry" />
        </mxCell>
        <mxCell id="FvZd1J4cDIK0EpSucuUi-18" value="- GetOrAddAudioClip(string, Define.Sound) : AudioClip&amp;nbsp;" style="text;strokeColor=none;fillColor=none;align=left;verticalAlign=middle;spacingLeft=4;spacingRight=4;overflow=hidden;points=[[0,0.5],[1,0.5]];portConstraint=eastwest;rotatable=0;whiteSpace=wrap;html=1;" vertex="1" parent="FvZd1J4cDIK0EpSucuUi-393">
          <mxGeometry y="180" width="320" height="30" as="geometry" />
        </mxCell>
        <mxCell id="FvZd1J4cDIK0EpSucuUi-395" value="Use" style="endArrow=open;endSize=12;dashed=1;html=1;rounded=0;entryX=0;entryY=0;entryDx=0;entryDy=0;exitX=1;exitY=0.5;exitDx=0;exitDy=0;" edge="1" parent="WIyWlLk6GJQsqaUBKTNV-1" source="FvZd1J4cDIK0EpSucuUi-346" target="FvZd1J4cDIK0EpSucuUi-374">
          <mxGeometry x="0.007" width="160" relative="1" as="geometry">
            <mxPoint x="990" y="-1930" as="sourcePoint" />
            <mxPoint x="1105" y="-1860" as="targetPoint" />
            <mxPoint as="offset" />
          </mxGeometry>
        </mxCell>
        <mxCell id="FvZd1J4cDIK0EpSucuUi-396" value="" style="endArrow=none;html=1;edgeStyle=orthogonalEdgeStyle;rounded=0;exitX=0;exitY=0;exitDx=0;exitDy=0;entryX=1;entryY=0;entryDx=0;entryDy=0;" edge="1" parent="WIyWlLk6GJQsqaUBKTNV-1" source="FvZd1J4cDIK0EpSucuUi-86" target="FvZd1J4cDIK0EpSucuUi-372">
          <mxGeometry relative="1" as="geometry">
            <mxPoint x="1315" y="-1532.5" as="sourcePoint" />
            <mxPoint x="1195" y="-1647.5" as="targetPoint" />
          </mxGeometry>
        </mxCell>
        <mxCell id="FvZd1J4cDIK0EpSucuUi-397" value="parent" style="edgeLabel;resizable=0;html=1;align=left;verticalAlign=bottom;" connectable="0" vertex="1" parent="FvZd1J4cDIK0EpSucuUi-396">
          <mxGeometry x="-1" relative="1" as="geometry" />
        </mxCell>
        <mxCell id="FvZd1J4cDIK0EpSucuUi-398" value="child" style="edgeLabel;resizable=0;html=1;align=right;verticalAlign=bottom;" connectable="0" vertex="1" parent="FvZd1J4cDIK0EpSucuUi-396">
          <mxGeometry x="1" relative="1" as="geometry" />
        </mxCell>
        <mxCell id="FvZd1J4cDIK0EpSucuUi-399" value="" style="endArrow=none;html=1;edgeStyle=orthogonalEdgeStyle;rounded=0;exitX=0;exitY=0;exitDx=0;exitDy=0;entryX=1;entryY=0;entryDx=0;entryDy=0;" edge="1" parent="WIyWlLk6GJQsqaUBKTNV-1" source="FvZd1J4cDIK0EpSucuUi-86" target="FvZd1J4cDIK0EpSucuUi-374">
          <mxGeometry relative="1" as="geometry">
            <mxPoint x="1185" y="-1465" as="sourcePoint" />
            <mxPoint x="1315" y="-1790" as="targetPoint" />
          </mxGeometry>
        </mxCell>
        <mxCell id="FvZd1J4cDIK0EpSucuUi-400" value="parent" style="edgeLabel;resizable=0;html=1;align=left;verticalAlign=bottom;" connectable="0" vertex="1" parent="FvZd1J4cDIK0EpSucuUi-399">
          <mxGeometry x="-1" relative="1" as="geometry" />
        </mxCell>
        <mxCell id="FvZd1J4cDIK0EpSucuUi-401" value="child" style="edgeLabel;resizable=0;html=1;align=right;verticalAlign=bottom;" connectable="0" vertex="1" parent="FvZd1J4cDIK0EpSucuUi-399">
          <mxGeometry x="1" relative="1" as="geometry" />
        </mxCell>
        <mxCell id="FvZd1J4cDIK0EpSucuUi-402" value="Box" style="swimlane;fontStyle=1;align=center;verticalAlign=top;childLayout=stackLayout;horizontal=1;startSize=26;horizontalStack=0;resizeParent=1;resizeParentMax=0;resizeLast=0;collapsible=1;marginBottom=0;whiteSpace=wrap;html=1;" vertex="1" parent="WIyWlLk6GJQsqaUBKTNV-1">
          <mxGeometry x="1180" y="-1450" width="180" height="124" as="geometry">
            <mxRectangle x="1175" y="-1496" width="130" height="30" as="alternateBounds" />
          </mxGeometry>
        </mxCell>
        <mxCell id="FvZd1J4cDIK0EpSucuUi-407" value="+ HasKey : bool" style="text;strokeColor=none;fillColor=none;align=left;verticalAlign=middle;spacingLeft=4;spacingRight=4;overflow=hidden;points=[[0,0.5],[1,0.5]];portConstraint=eastwest;rotatable=0;whiteSpace=wrap;html=1;" vertex="1" parent="FvZd1J4cDIK0EpSucuUi-402">
          <mxGeometry y="26" width="180" height="30" as="geometry" />
        </mxCell>
        <mxCell id="FvZd1J4cDIK0EpSucuUi-413" value="+ IsOpened : bool" style="text;strokeColor=none;fillColor=none;align=left;verticalAlign=middle;spacingLeft=4;spacingRight=4;overflow=hidden;points=[[0,0.5],[1,0.5]];portConstraint=eastwest;rotatable=0;whiteSpace=wrap;html=1;" vertex="1" parent="FvZd1J4cDIK0EpSucuUi-402">
          <mxGeometry y="56" width="180" height="30" as="geometry" />
        </mxCell>
        <mxCell id="FvZd1J4cDIK0EpSucuUi-403" value="" style="line;strokeWidth=1;fillColor=none;align=left;verticalAlign=middle;spacingTop=-1;spacingLeft=3;spacingRight=3;rotatable=0;labelPosition=right;points=[];portConstraint=eastwest;strokeColor=inherit;" vertex="1" parent="FvZd1J4cDIK0EpSucuUi-402">
          <mxGeometry y="86" width="180" height="8" as="geometry" />
        </mxCell>
        <mxCell id="FvZd1J4cDIK0EpSucuUi-408" value="+ Open() : void" style="text;strokeColor=none;fillColor=none;align=left;verticalAlign=middle;spacingLeft=4;spacingRight=4;overflow=hidden;points=[[0,0.5],[1,0.5]];portConstraint=eastwest;rotatable=0;whiteSpace=wrap;html=1;" vertex="1" parent="FvZd1J4cDIK0EpSucuUi-402">
          <mxGeometry y="94" width="180" height="30" as="geometry" />
        </mxCell>
        <mxCell id="FvZd1J4cDIK0EpSucuUi-414" value="" style="endArrow=none;html=1;edgeStyle=orthogonalEdgeStyle;rounded=0;exitX=0;exitY=0;exitDx=0;exitDy=0;entryX=1;entryY=0;entryDx=0;entryDy=0;" edge="1" parent="WIyWlLk6GJQsqaUBKTNV-1" source="FvZd1J4cDIK0EpSucuUi-86" target="FvZd1J4cDIK0EpSucuUi-402">
          <mxGeometry relative="1" as="geometry">
            <mxPoint x="1185" y="-1465" as="sourcePoint" />
            <mxPoint x="1380" y="-1730" as="targetPoint" />
          </mxGeometry>
        </mxCell>
        <mxCell id="FvZd1J4cDIK0EpSucuUi-415" value="parent" style="edgeLabel;resizable=0;html=1;align=left;verticalAlign=bottom;" connectable="0" vertex="1" parent="FvZd1J4cDIK0EpSucuUi-414">
          <mxGeometry x="-1" relative="1" as="geometry" />
        </mxCell>
        <mxCell id="FvZd1J4cDIK0EpSucuUi-416" value="child" style="edgeLabel;resizable=0;html=1;align=right;verticalAlign=bottom;" connectable="0" vertex="1" parent="FvZd1J4cDIK0EpSucuUi-414">
          <mxGeometry x="1" relative="1" as="geometry" />
        </mxCell>
        <mxCell id="FvZd1J4cDIK0EpSucuUi-417" value="Use" style="endArrow=open;endSize=12;dashed=1;html=1;rounded=0;exitX=1;exitY=0.5;exitDx=0;exitDy=0;entryX=0;entryY=0;entryDx=0;entryDy=0;" edge="1" parent="WIyWlLk6GJQsqaUBKTNV-1" source="FvZd1J4cDIK0EpSucuUi-367" target="FvZd1J4cDIK0EpSucuUi-402">
          <mxGeometry x="0.007" width="160" relative="1" as="geometry">
            <mxPoint x="1020" y="-1650" as="sourcePoint" />
            <mxPoint x="1275" y="-1655" as="targetPoint" />
            <mxPoint as="offset" />
          </mxGeometry>
        </mxCell>
        <mxCell id="FvZd1J4cDIK0EpSucuUi-419" value="" style="endArrow=diamondThin;endFill=1;endSize=24;html=1;rounded=0;entryX=1;entryY=0.5;entryDx=0;entryDy=0;exitX=0;exitY=0;exitDx=0;exitDy=0;" edge="1" parent="WIyWlLk6GJQsqaUBKTNV-1" source="FvZd1J4cDIK0EpSucuUi-388" target="FvZd1J4cDIK0EpSucuUi-418">
          <mxGeometry width="160" relative="1" as="geometry">
            <mxPoint x="800" y="-1830" as="sourcePoint" />
            <mxPoint x="650" y="-1615" as="targetPoint" />
          </mxGeometry>
        </mxCell>
      </root>
    </mxGraphModel>
  </diagram>
</mxfile>
